<svg xmlns="http://www.w3.org/2000/svg" viewBox="0 0 65.69 75.41"><defs><style>.cls-1{fill:#23c0f9;}</style></defs><title>favicon</title><g id="Layer_2" data-name="Layer 2"><g id="Layer_1-2" data-name="Layer 1"><path class="cls-1" d="M64.56,32.28l-7-11.65a7.8,7.8,0,0,0-6.58-3.77,2,2,0,0,0-.11-.26L42.4,1.06A2,2,0,0,0,40.62,0H25.21a2,2,0,0,0-1.77,1.06L14.85,16.74a.54.54,0,0,0,0,.11h-.15a7.8,7.8,0,0,0-6.81,4L1,32.8A7.85,7.85,0,0,0,.9,40.31l16.16,30.9a7.83,7.83,0,0,0,7,4.2H41.34a7.86,7.86,0,0,0,6.93-4.17L64.78,40A7.82,7.82,0,0,0,64.56,32.28ZM28.46,7.51h8.9l5,9.17H23.44Zm29.69,29L41.63,67.73a.32.32,0,0,1-.29.17H24a.32.32,0,0,1-.3-.18L7.54,36.82a.34.34,0,0,1,0-.31l6.81-12a.34.34,0,0,1,.29-.16H50.81a.32.32,0,0,1,.28.16l7,11.64A.35.35,0,0,1,58.15,36.49Z"/></g></g></svg>