<svg xmlns="http://www.w3.org/2000/svg" xmlns:xlink="http://www.w3.org/1999/xlink" viewBox="0 0 55 55"><defs><style>.cls-1{fill:url(#linear-gradient);}.cls-2{fill:#fff;}</style><linearGradient id="linear-gradient" x1="0.95" y1="62.85" x2="45.94" y2="2.95" gradientUnits="userSpaceOnUse"><stop offset="0" stop-color="#04688f"/><stop offset="1" stop-color="#2ec0f9"/></linearGradient></defs><title>app_icon_1</title><g id="Layer_2" data-name="Layer 2"><g id="Layer_1-2" data-name="Layer 1"><rect class="cls-1" width="55" height="55" rx="12" ry="12"/><path class="cls-2" d="M40.18,25.25l-2.89-4.78a3.22,3.22,0,0,0-2.7-1.55.93.93,0,0,0-.05-.1l-3.46-6.38a.84.84,0,0,0-.73-.44H24a.85.85,0,0,0-.73.43l-3.52,6.44s0,0,0,.05h-.07a3.19,3.19,0,0,0-2.79,1.63l-2.8,4.92A3.21,3.21,0,0,0,14,28.55l6.63,12.69A3.23,3.23,0,0,0,23.53,43h7.11a3.21,3.21,0,0,0,2.85-1.71l6.78-12.83A3.23,3.23,0,0,0,40.18,25.25ZM25.35,15.08H29l2,3.77H23.29ZM37.55,27,30.76,39.81a.14.14,0,0,1-.12.07H23.53a.13.13,0,0,1-.12-.07L16.77,27.12a.12.12,0,0,1,0-.13l2.79-4.92a.15.15,0,0,1,.12-.07H34.53a.15.15,0,0,1,.12.07l2.89,4.78A.15.15,0,0,1,37.55,27Z"/></g></g></svg>