<svg width="18" height="43" viewBox="0 0 18 43" fill="none" xmlns="http://www.w3.org/2000/svg">
<g clip-path="url(#clip0)">
<path d="M2 31.0002H16C17.103 31.0002 18 30.1032 18 29.0002V20.0002C18.0001 19.8689 17.9743 19.7388 17.924 19.6175C17.8738 19.4961 17.8 19.3859 17.707 19.2932L9.707 11.2932C9.61421 11.2003 9.50401 11.1265 9.38269 11.0762C9.26138 11.0259 9.13133 11 9 11C8.86867 11 8.73862 11.0259 8.61731 11.0762C8.49599 11.1265 8.38579 11.2003 8.293 11.2932L0.293001 19.2932C0.200002 19.3859 0.126244 19.4961 0.0759616 19.6175C0.0256795 19.7388 -0.000135141 19.8689 5.32017e-07 20.0002V29.0002C5.32017e-07 30.1032 0.897 31.0002 2 31.0002ZM7 29.0002V24.0002H11V29.0002H7ZM2 20.4142L9 13.4142L16 20.4142L16.001 29.0002H13V24.0002C13 22.8972 12.103 22.0002 11 22.0002H7C5.897 22.0002 5 22.8972 5 24.0002V29.0002H2V20.4142Z" fill="white"/>
</g>
<defs>
<clipPath id="clip0">
<rect width="18" height="43" fill="white"/>
</clipPath>
</defs>
</svg>
