<svg xmlns="http://www.w3.org/2000/svg" viewBox="0 0 764.58 117.28"><defs><style>.cls-1{fill:#23c0f9;}.cls-2{fill:#fff;}.cls-3{fill:#2ec0f9;}</style></defs><title>icon</title><g id="Layer_2" data-name="Layer 2"><g id="Layer_1-2" data-name="Layer 1"><path class="cls-1" d="M100.41,50.2l-11-18.11a12.18,12.18,0,0,0-10.23-5.87,3,3,0,0,0-.18-.41L65.94,1.65A3.11,3.11,0,0,0,63.19,0h-24a3.13,3.13,0,0,0-2.75,1.63L23.1,26a1.3,1.3,0,0,0-.08.17h-.24a12.17,12.17,0,0,0-10.59,6.16L1.59,51a12.18,12.18,0,0,0-.2,11.67l25.14,48.05a12.21,12.21,0,0,0,10.81,6.54h27a12.21,12.21,0,0,0,10.78-6.49L100.76,62.2A12.17,12.17,0,0,0,100.41,50.2ZM44.27,11.68H58.1l7.74,14.26H36.46ZM90.43,56.74,64.75,105.33a.51.51,0,0,1-.46.27H37.34a.51.51,0,0,1-.46-.27L11.73,57.27a.56.56,0,0,1,0-.49l10.6-18.64a.53.53,0,0,1,.44-.26H79a.52.52,0,0,1,.44.25l11,18.11A.5.5,0,0,1,90.43,56.74Z"/><path class="cls-2" d="M193.86,58.91A14.6,14.6,0,0,0,188,53.85a.37.37,0,0,1-.07-.64A14.46,14.46,0,0,0,192,48.57a15.73,15.73,0,0,0,1.81-7.92,19.76,19.76,0,0,0-1.54-8.09A15.82,15.82,0,0,0,188,26.84a17.55,17.55,0,0,0-6.47-3.39,29.16,29.16,0,0,0-8.23-1.1H146.15a.38.38,0,0,0-.38.38V87.8a.37.37,0,0,0,.38.37h29.1a28.51,28.51,0,0,0,8.58-1.23,18.77,18.77,0,0,0,6.73-3.65,16.63,16.63,0,0,0,4.4-6A20.28,20.28,0,0,0,196.55,69Q196.55,62.75,193.86,58.91ZM159.32,34.7a.38.38,0,0,1,.38-.38h12a9.55,9.55,0,0,1,6,1.76Q180,37.84,180,41.62c0,2.53-.69,4.34-2.07,5.46a8.51,8.51,0,0,1-5.5,1.67H159.7a.38.38,0,0,1-.38-.38Zm20.81,39.61a10.74,10.74,0,0,1-6.46,1.81h-14a.38.38,0,0,1-.38-.38V60.66a.38.38,0,0,1,.38-.38h14.14a10.15,10.15,0,0,1,6.29,1.89c1.68,1.26,2.51,3.3,2.51,6.12S181.81,73.11,180.13,74.31Z"/><path class="cls-2" d="M247.56,42.68H235.47a.38.38,0,0,0-.38.38V68.37a9.65,9.65,0,0,1-2,6.34,7,7,0,0,1-5.72,2.46q-3.78,0-5.54-2.2T220,68.55V43.06a.38.38,0,0,0-.38-.38H207.57a.38.38,0,0,0-.38.38V71.28q0,8.35,4.45,13.11T224,89.14a14.71,14.71,0,0,0,7.66-1.71,13.68,13.68,0,0,0,3.47-2.91.37.37,0,0,1,.66.24v3a.37.37,0,0,0,.38.37h11.39a.37.37,0,0,0,.38-.37V43.06A.38.38,0,0,0,247.56,42.68Z"/><path class="cls-2" d="M302.61,71.77l-11.74-1.08a.39.39,0,0,0-.4.31,8.27,8.27,0,0,1-2.85,5.07,9.28,9.28,0,0,1-6.16,2,9.47,9.47,0,0,1-7.39-3.25q-2.9-3.26-2.9-9.33t2.9-9.37a9.42,9.42,0,0,1,7.39-3.3,9.07,9.07,0,0,1,6.12,2.07,8.32,8.32,0,0,1,2.81,5.23.38.38,0,0,0,.4.33l11.82-1A.38.38,0,0,0,303,59a20.58,20.58,0,0,0-2.44-7,19.91,19.91,0,0,0-4.76-5.55A20.36,20.36,0,0,0,289.25,43a24.77,24.77,0,0,0-7.79-1.19,26.94,26.94,0,0,0-9.32,1.58,20.55,20.55,0,0,0-7.4,4.62,21.74,21.74,0,0,0-4.84,7.44,26.9,26.9,0,0,0-1.76,10,26.6,26.6,0,0,0,1.76,9.94,20.83,20.83,0,0,0,12.28,12.1,25.75,25.75,0,0,0,9.28,1.63A24.73,24.73,0,0,0,289.3,88a20.86,20.86,0,0,0,6.46-3.43,18.58,18.58,0,0,0,4.71-5.45A21.65,21.65,0,0,0,303,72.22.38.38,0,0,0,302.61,71.77Z"/><path class="cls-2" d="M356.64,87.58l-17.8-25.21a.39.39,0,0,1,0-.47l16.41-18.59a.38.38,0,0,0-.28-.63H340.42a.36.36,0,0,0-.28.12L326.21,58.15a.38.38,0,0,1-.66-.26V20.18a.38.38,0,0,0-.38-.38H313.08a.38.38,0,0,0-.38.38V87.8a.37.37,0,0,0,.38.37h12.09a.37.37,0,0,0,.38-.37V76.27a.4.4,0,0,1,.1-.26l3.64-4a.37.37,0,0,1,.58,0L341.37,88a.36.36,0,0,0,.3.15h14.66A.38.38,0,0,0,356.64,87.58Z"/><path class="cls-2" d="M404.79,54.91a19.4,19.4,0,0,0-4.4-7.13,19.18,19.18,0,0,0-6.86-4.44,24.65,24.65,0,0,0-8.93-1.54,25.68,25.68,0,0,0-9.33,1.63,20.71,20.71,0,0,0-7.3,4.7,21.64,21.64,0,0,0-4.8,7.44,26.9,26.9,0,0,0-1.71,9.9,27.06,27.06,0,0,0,1.71,9.86,21.53,21.53,0,0,0,4.8,7.48,20.45,20.45,0,0,0,7.43,4.7A27,27,0,0,0,385,89.14a25.1,25.1,0,0,0,7.52-1.1A21.86,21.86,0,0,0,398.81,85a18.75,18.75,0,0,0,4.62-4.66,15.25,15.25,0,0,0,2.37-5.5.38.38,0,0,0-.35-.46l-12.21-.58a.38.38,0,0,0-.37.25,6.28,6.28,0,0,1-2.77,3.43,10.39,10.39,0,0,1-5.5,1.32,9.18,9.18,0,0,1-6.86-2.51,9.59,9.59,0,0,1-2.62-6.32.38.38,0,0,1,.38-.41H406a.38.38,0,0,0,.38-.38V64.41A27.52,27.52,0,0,0,404.79,54.91ZM393,61H375.51a.38.38,0,0,1-.38-.42,9.47,9.47,0,0,1,2.74-6.35,9.22,9.22,0,0,1,6.64-2.38q4.39,0,6.56,2.46a10.39,10.39,0,0,1,2.31,6.28A.4.4,0,0,1,393,61Z"/><path class="cls-2" d="M432.67,53.77h10a.38.38,0,0,0,.38-.38V43.06a.38.38,0,0,0-.38-.38h-9.89a.38.38,0,0,1-.38-.38L432.47,28a.38.38,0,0,0-.38-.38H420a.38.38,0,0,0-.38.38l-.08,14.29a.38.38,0,0,1-.38.38h-7.61a.38.38,0,0,0-.38.38V53.39a.38.38,0,0,0,.38.38h7.52a.37.37,0,0,1,.37.38l-.08,19.59a18,18,0,0,0,1.19,6.87,12.2,12.2,0,0,0,3.34,4.75,14.27,14.27,0,0,0,5.24,2.77,23.34,23.34,0,0,0,6.77.92,38.38,38.38,0,0,0,4.18-.17l2.62-.31a.39.39,0,0,0,.33-.38V77.56a.38.38,0,0,0-.46-.37c-.36.08-.74.14-1.17.2a16.41,16.41,0,0,1-2.33.14,7.87,7.87,0,0,1-4.8-1.54c-1.38-1-2.06-2.8-2.06-5.33l.08-16.52A.37.37,0,0,1,432.67,53.77Z"/><path class="cls-2" d="M529.53,41.4a28.9,28.9,0,0,0-17.16-16.81,36.93,36.93,0,0,0-13-2.24H472.62a.37.37,0,0,0-.37.38V87.8a.36.36,0,0,0,.37.37h26.64a36.8,36.8,0,0,0,13-2.24,30.07,30.07,0,0,0,10.38-6.47,29.2,29.2,0,0,0,6.86-10.34A36.82,36.82,0,0,0,532,55.26,36.9,36.9,0,0,0,529.53,41.4ZM517.17,64.55a18.18,18.18,0,0,1-3.87,6.68,15.62,15.62,0,0,1-6,4,22.18,22.18,0,0,1-7.83,1.32H486.18a.38.38,0,0,1-.38-.38V34.34a.38.38,0,0,1,.38-.37h13.26a22.18,22.18,0,0,1,7.83,1.32,15.6,15.6,0,0,1,6,4A18.31,18.31,0,0,1,517.17,46a28.75,28.75,0,0,1,1.36,9.28A28.81,28.81,0,0,1,517.17,64.55Z"/><path class="cls-2" d="M583.52,54.91a19.54,19.54,0,0,0-4.4-7.13,19.26,19.26,0,0,0-6.86-4.44,24.66,24.66,0,0,0-8.94-1.54A25.58,25.58,0,0,0,554,43.43a20.75,20.75,0,0,0-7.31,4.7,21.62,21.62,0,0,0-4.79,7.44,26.69,26.69,0,0,0-1.72,9.9,26.85,26.85,0,0,0,1.72,9.86,21.51,21.51,0,0,0,4.79,7.48,20.5,20.5,0,0,0,7.44,4.7,26.93,26.93,0,0,0,9.55,1.63A25.15,25.15,0,0,0,571.2,88,21.86,21.86,0,0,0,577.54,85a19.1,19.1,0,0,0,4.62-4.66,15.6,15.6,0,0,0,2.37-5.5.38.38,0,0,0-.36-.46L572,73.76a.37.37,0,0,0-.37.25,6.3,6.3,0,0,1-2.78,3.43,10.37,10.37,0,0,1-5.5,1.32,9.18,9.18,0,0,1-6.86-2.51,9.69,9.69,0,0,1-2.62-6.32.4.4,0,0,1,.39-.41h30.45a.38.38,0,0,0,.38-.38V64.41A27.52,27.52,0,0,0,583.52,54.91ZM571.72,61H554.23a.38.38,0,0,1-.38-.42,9.52,9.52,0,0,1,2.74-6.35,9.25,9.25,0,0,1,6.65-2.38q4.39,0,6.55,2.46a10.27,10.27,0,0,1,2.31,6.28A.38.38,0,0,1,571.72,61Z"/><path class="cls-2" d="M628.71,68.77a11.21,11.21,0,0,0-3.21-3.7,19.82,19.82,0,0,0-4.89-2.59,60.39,60.39,0,0,0-6.25-1.94c-1.35-.35-2.58-.66-3.69-.92a14.77,14.77,0,0,1-2.82-.93,5.17,5.17,0,0,1-1.76-1.23,2.83,2.83,0,0,1-.61-1.93c0-2.58,1.73-3.88,5.19-3.88A5.42,5.42,0,0,1,615,53.19a6.6,6.6,0,0,1,1.46,3.65.37.37,0,0,0,.39.34l12-.66a.4.4,0,0,0,.36-.43,16.09,16.09,0,0,0-1.55-5.45A14.6,14.6,0,0,0,624,46a16.16,16.16,0,0,0-5.58-3.08,24.19,24.19,0,0,0-7.62-1.1q-8.62,0-13.42,3.87a12.76,12.76,0,0,0-4.79,10.47,12.74,12.74,0,0,0,1.14,5.77A10.26,10.26,0,0,0,597,65.65a18.9,18.9,0,0,0,5.1,2.46c2,.65,4.2,1.26,6.6,1.85,1.64.41,3,.78,4.09,1.1a10.82,10.82,0,0,1,2.56,1,3.36,3.36,0,0,1,1.27,1.28,3.86,3.86,0,0,1,.35,1.76,3.49,3.49,0,0,1-1.54,3.08,7.3,7.3,0,0,1-4.18,1.06c-2.23,0-3.85-.52-4.88-1.54A6.07,6.07,0,0,1,604.72,74a.39.39,0,0,0-.39-.35l-12.09.67a.38.38,0,0,0-.36.43,14.88,14.88,0,0,0,5.59,10.54q4.92,3.84,13.73,3.83,9,0,13.81-4.09a13.71,13.71,0,0,0,4.84-11A11.09,11.09,0,0,0,628.71,68.77Z"/><path class="cls-2" d="M652.27,42.68h-12.1a.38.38,0,0,0-.37.38V87.8a.37.37,0,0,0,.37.37h12.1a.37.37,0,0,0,.37-.37V43.06A.38.38,0,0,0,652.27,42.68Z"/><path class="cls-2" d="M710.08,42.68h-11.3a.38.38,0,0,0-.38.38v3.33a.37.37,0,0,1-.64.26,14.36,14.36,0,0,0-4.59-3.22,19.42,19.42,0,0,0-8.32-1.63A22.23,22.23,0,0,0,676,43.51a20.53,20.53,0,0,0-6.91,4.8,21.7,21.7,0,0,0-4.53,7.44,27.45,27.45,0,0,0-1.63,9.72,27.45,27.45,0,0,0,1.63,9.72,22.08,22.08,0,0,0,4.53,7.48,19.46,19.46,0,0,0,6.91,4.8,22.75,22.75,0,0,0,8.84,1.67,19.38,19.38,0,0,0,7.74-1.41,15.33,15.33,0,0,0,4.48-2.8.38.38,0,0,1,.63.28v5.6c0,3.29-1,5.74-3,7.35a11.71,11.71,0,0,1-7.7,2.42,13.37,13.37,0,0,1-5.88-1.16,8.1,8.1,0,0,1-2.52,6,8.32,8.32,0,0,1-5.81,2.46,22.8,22.8,0,0,0,5.19,2.31,31.86,31.86,0,0,0,9.46,1.27A27.48,27.48,0,0,0,697,110a20.63,20.63,0,0,0,7.22-4.35,19.26,19.26,0,0,0,4.62-6.82,23.44,23.44,0,0,0,1.63-8.93V43.06A.38.38,0,0,0,710.08,42.68ZM697.7,66.53q0,5.53-3,8.58A11.29,11.29,0,0,1,679,74.84Q676,71.54,676,65.47T679,56.1a11.29,11.29,0,0,1,15.67-.27q3,3,3,8.58ZM678.14,99.39a5.34,5.34,0,0,0-1.63-4,5.41,5.41,0,0,0-3.94-1.59,5.3,5.3,0,0,0-3.9,1.59,5.39,5.39,0,0,0-1.6,4,5.46,5.46,0,0,0,5.5,5.5,5.38,5.38,0,0,0,3.94-1.6A5.22,5.22,0,0,0,678.14,99.39Z"/><path class="cls-2" d="M763.26,52.49a16.67,16.67,0,0,0-3.65-5.85A15.28,15.28,0,0,0,754,43a20.3,20.3,0,0,0-7.22-1.23,16.66,16.66,0,0,0-7.7,1.58,12.2,12.2,0,0,0-3.87,3,.37.37,0,0,1-.66-.24V43.06a.38.38,0,0,0-.38-.38H722.8a.38.38,0,0,0-.37.38V87.8a.37.37,0,0,0,.37.37h12.1a.37.37,0,0,0,.37-.37V62.92a9.53,9.53,0,0,1,2.29-6.65,7.94,7.94,0,0,1,6.16-2.5,7.54,7.54,0,0,1,5.85,2.33c1.44,1.55,2.16,3.8,2.16,6.73v25a.37.37,0,0,0,.38.37H764.2a.37.37,0,0,0,.38-.37V60.37A22.07,22.07,0,0,0,763.26,52.49Z"/><path class="cls-3" d="M676.51,95.41a5.41,5.41,0,0,0-3.94-1.59,5.3,5.3,0,0,0-3.9,1.59,5.39,5.39,0,0,0-1.6,4,5.46,5.46,0,0,0,5.5,5.5,5.38,5.38,0,0,0,3.94-1.6,5.22,5.22,0,0,0,1.63-3.9A5.34,5.34,0,0,0,676.51,95.41Z"/><path class="cls-3" d="M651.92,23a7.36,7.36,0,0,0-5.36-2.16A7.22,7.22,0,0,0,641.25,23a7.33,7.33,0,0,0-2.18,5.42,7.44,7.44,0,0,0,7.49,7.49,7.34,7.34,0,0,0,5.36-2.18,7.11,7.11,0,0,0,2.22-5.31A7.25,7.25,0,0,0,651.92,23Z"/></g></g></svg>