<svg xmlns="http://www.w3.org/2000/svg" viewBox="0 0 20 20"><title>earth_icon</title><g id="Layer_2" data-name="Layer 2"><g id="Layer_1-2" data-name="Layer 1"><path d="M4.24,4.45a8,8,0,0,0,8.81,13,3.49,3.49,0,0,0-.24-1.73,12.48,12.48,0,0,0-2.25-2.84c-.34-.35-.32-.63-.2-1.44l0-.09c.08-.55.22-.88,2.08-1.17a1.27,1.27,0,0,1,1.54.75l.12.17a1.86,1.86,0,0,0,.94.76c.16.07.37.17.64.32.65.37.65.79.65,1.72V14a5.37,5.37,0,0,1-.09,1A8,8,0,0,0,15,3.74a8.54,8.54,0,0,0-1.84-1.1,8.12,8.12,0,0,0-1.57,1.27c-.14.18-.33,1.13-.95,1.21a3.27,3.27,0,0,1-.62,0c-.62,0-1.47-.09-1.74.64a3,3,0,0,0,.35,2.4.59.59,0,0,1,.05.52,1,1,0,0,1-.29.5A2.46,2.46,0,0,1,8,8.74a2.79,2.79,0,0,0-1.21-1l-.58-.13C5.62,7.53,5,7.4,4.85,7.09a2.06,2.06,0,0,1-.1-.86,3.12,3.12,0,0,0-.21-1.35A1.28,1.28,0,0,0,4.24,4.45ZM10,20A10,10,0,1,1,20,10,10,10,0,0,1,10,20Z"/></g></g></svg>