<svg width="35" height="35" viewBox="0 0 35 35" fill="none" xmlns="http://www.w3.org/2000/svg">
<path fill-rule="evenodd" clip-rule="evenodd" d="M9 1.52588e-05C4.02944 1.52588e-05 0 4.02945 0 9.00001V26C0 30.9706 4.02944 35 9 35H26C30.9706 35 35 30.9706 35 26V9.00002C35 4.02945 30.9706 1.52588e-05 26 1.52588e-05H9ZM11.2086 27C11.3753 24 12.1086 17.3 13.7086 14.5C14.2086 16.6667 15.2086 21.6 15.2086 24L19.2086 22C19.3753 20.5 20.1086 17.3 21.7086 16.5C21.8753 17.2788 22.1086 19.2028 21.7086 20.6682C22.8753 19.6122 25.6086 17.5 27.2086 17.5C26.7086 17.1667 25.4086 16.6 24.2086 17C24.3753 16.6667 24.5086 15.9 23.7086 15.5L20.2086 13.5C19.7086 13.5 18.5086 13.8 17.7086 15L16.2086 11L11.2086 8.00002C9.54194 11.5 7.20861 20.2 11.2086 27Z" fill="white"/>
</svg>
