<svg width="35" height="35" viewBox="0 0 35 35" fill="none" xmlns="http://www.w3.org/2000/svg">
<path fill-rule="evenodd" clip-rule="evenodd" d="M9 0C4.02944 0 0 4.02944 0 9V26C0 30.9706 4.02944 35 9 35H26C30.9706 35 35 30.9706 35 26V9C35 4.02944 30.9706 0 26 0H9ZM22.18 12.58C21.4733 11.8333 20.5267 11.46 19.34 11.46C18.5533 11.46 17.9 11.62 17.38 11.94C16.8733 12.2467 16.4667 12.6333 16.16 13.1C15.8133 12.5667 15.3667 12.16 14.82 11.88C14.2733 11.6 13.64 11.46 12.92 11.46C12.2 11.46 11.62 11.58 11.18 11.82C10.7533 12.06 10.4267 12.36 10.2 12.72V11.66H7.44V22H10.36V16.26C10.36 15.6333 10.52 15.1333 10.84 14.76C11.1733 14.3733 11.6333 14.18 12.22 14.18C12.7533 14.18 13.1667 14.36 13.46 14.72C13.7533 15.0667 13.9 15.5733 13.9 16.24V22H16.82V15.9C16.8867 15.38 17.0733 14.9667 17.38 14.66C17.6867 14.34 18.1 14.18 18.62 14.18C19.18 14.18 19.6067 14.36 19.9 14.72C20.1933 15.0667 20.34 15.5733 20.34 16.24V22H23.26V15.66C23.26 14.34 22.9 13.3133 22.18 12.58ZM28.3738 19.2C28.0271 18.8533 27.6071 18.68 27.1138 18.68C26.6204 18.68 26.2004 18.8533 25.8538 19.2C25.5204 19.5333 25.3538 19.9533 25.3538 20.46C25.3538 20.9533 25.5204 21.3733 25.8538 21.72C26.2004 22.0533 26.6204 22.22 27.1138 22.22C27.6071 22.22 28.0271 22.0533 28.3738 21.72C28.7204 21.3733 28.8937 20.9533 28.8937 20.46C28.8937 19.9533 28.7204 19.5333 28.3738 19.2Z" fill="white"/>
</svg>
