<svg width="26" height="24" viewBox="0 0 26 24" fill="none" xmlns="http://www.w3.org/2000/svg">
    <path d="M6.40125 20.5634L6.40462 20.5645L5.17373 22.6964C4.72444 23.4746 3.72937 23.7412 2.95116 23.2919C2.17308 22.8426 1.90631 21.8476 2.35561 21.0693L3.26236 19.4988L3.34941 19.3481C3.5048 19.1248 3.88828 18.7392 4.65539 18.8117C4.65539 18.8117 6.46059 19.0076 6.59123 19.9459C6.59123 19.9459 6.60895 20.2546 6.40125 20.5634ZM23.8589 15.1184H20.0206C19.7592 15.1008 19.6452 15.0074 19.6002 14.9531L19.5974 14.9482L15.4887 7.83175L15.4834 7.83526L15.237 7.48201C14.8331 6.86439 14.1919 8.44389 14.1919 8.44389C13.4262 10.2039 14.3006 12.2049 14.6053 12.8097L20.3122 22.6943C20.7613 23.4723 21.7564 23.7391 22.5347 23.2897C23.3128 22.8404 23.5796 21.8453 23.1301 21.0671L21.7032 18.5955C21.6755 18.5356 21.6274 18.373 21.9201 18.3723H23.8589C24.7575 18.3723 25.4859 17.6439 25.4859 16.7453C25.4859 15.8467 24.7575 15.1182 23.8589 15.1182V15.1184ZM16.4038 17.3301C16.4038 17.3301 16.6087 18.3723 15.816 18.3723H1.62703C0.728437 18.3723 0 17.6439 0 16.7453C0 15.8467 0.728437 15.1182 1.62703 15.1182H5.27484C5.86378 15.0842 6.00328 14.7442 6.00328 14.7442L6.00666 14.7459L10.7682 6.49848L10.7668 6.4982C10.8536 6.33887 10.7813 6.18826 10.7688 6.1645L9.19617 3.44073C8.74687 2.66265 9.0135 1.66745 9.79172 1.21829C10.5699 0.768995 11.565 1.03548 12.0143 1.8137L12.7436 3.07693L13.4716 1.81595C13.9209 1.03787 14.916 0.771105 15.6942 1.22054C16.4724 1.66984 16.739 2.66476 16.2897 3.44298L9.66375 14.9194C9.63478 14.9893 9.62592 15.099 9.8415 15.1182H13.8021L13.8029 15.1569C13.8029 15.1569 16.092 15.1925 16.4038 17.3301Z" fill="white"/>
</svg>
